<mxfile host="app.diagrams.net" modified="2022-10-10T03:39:05.061Z" agent="5.0 (X11; Linux x86_64) AppleWebKit/537.36 (KHTML, like Gecko) Chrome/102.0.0.0 Safari/537.36" etag="uMvWNeNZRf2eONEeUiN3" version="20.3.6" type="github">
  <diagram id="OVVwKCZhzpUVyj7BzKNd" name="第 1 页">
    <mxGraphModel dx="1276" dy="520" grid="1" gridSize="10" guides="1" tooltips="1" connect="1" arrows="1" fold="1" page="1" pageScale="1" pageWidth="827" pageHeight="1169" math="0" shadow="0">
      <root>
        <mxCell id="0" />
        <mxCell id="1" parent="0" />
        <mxCell id="e_5nv_i7avDI-sbqsIBW-24" value="事件总线" style="triangle;whiteSpace=wrap;html=1;rotation=0;fillColor=#dae8fc;strokeColor=#6c8ebf;verticalAlign=middle;labelPosition=center;verticalLabelPosition=middle;align=center;horizontal=1;" vertex="1" parent="1">
          <mxGeometry x="360" y="480" width="660" height="320" as="geometry" />
        </mxCell>
        <mxCell id="e_5nv_i7avDI-sbqsIBW-16" value="网关状态" style="rounded=0;orthogonalLoop=1;jettySize=auto;html=1;edgeStyle=orthogonalEdgeStyle;curved=1;" edge="1" parent="1" source="e_5nv_i7avDI-sbqsIBW-25" target="e_5nv_i7avDI-sbqsIBW-27">
          <mxGeometry x="-0.2274" y="-40" relative="1" as="geometry">
            <mxPoint x="460" y="410" as="targetPoint" />
            <Array as="points">
              <mxPoint x="280" y="480" />
            </Array>
            <mxPoint as="offset" />
          </mxGeometry>
        </mxCell>
        <mxCell id="e_5nv_i7avDI-sbqsIBW-17" style="rounded=0;orthogonalLoop=1;jettySize=auto;html=1;edgeStyle=orthogonalEdgeStyle;curved=1;" edge="1" parent="1" source="e_5nv_i7avDI-sbqsIBW-25" target="e_5nv_i7avDI-sbqsIBW-27">
          <mxGeometry relative="1" as="geometry">
            <mxPoint x="319.9975131106458" y="610" as="sourcePoint" />
            <mxPoint x="798.8989838486223" y="510" as="targetPoint" />
            <Array as="points">
              <mxPoint x="480" y="610" />
              <mxPoint x="480" y="510" />
            </Array>
          </mxGeometry>
        </mxCell>
        <mxCell id="e_5nv_i7avDI-sbqsIBW-18" value="设置属性&lt;br&gt;服务调用" style="edgeLabel;html=1;align=center;verticalAlign=middle;resizable=0;points=[];" vertex="1" connectable="0" parent="e_5nv_i7avDI-sbqsIBW-17">
          <mxGeometry x="-0.2041" relative="1" as="geometry">
            <mxPoint x="12" as="offset" />
          </mxGeometry>
        </mxCell>
        <mxCell id="e_5nv_i7avDI-sbqsIBW-29" style="edgeStyle=orthogonalEdgeStyle;curved=1;rounded=0;orthogonalLoop=1;jettySize=auto;html=1;" edge="1" parent="1" source="e_5nv_i7avDI-sbqsIBW-25" target="e_5nv_i7avDI-sbqsIBW-26">
          <mxGeometry relative="1" as="geometry">
            <mxPoint x="298.73" y="680.0010161513777" as="sourcePoint" />
            <mxPoint x="520.0001665379257" y="775.36" as="targetPoint" />
            <Array as="points">
              <mxPoint x="299" y="780" />
            </Array>
          </mxGeometry>
        </mxCell>
        <mxCell id="e_5nv_i7avDI-sbqsIBW-30" value="规则增删改" style="edgeLabel;html=1;align=center;verticalAlign=middle;resizable=0;points=[];" vertex="1" connectable="0" parent="e_5nv_i7avDI-sbqsIBW-29">
          <mxGeometry x="-0.2201" y="31" relative="1" as="geometry">
            <mxPoint x="4" y="-19" as="offset" />
          </mxGeometry>
        </mxCell>
        <mxCell id="e_5nv_i7avDI-sbqsIBW-25" value="OpenAPI" style="ellipse;whiteSpace=wrap;html=1;aspect=fixed;" vertex="1" parent="1">
          <mxGeometry x="240" y="600" width="80" height="80" as="geometry" />
        </mxCell>
        <mxCell id="e_5nv_i7avDI-sbqsIBW-31" style="edgeStyle=orthogonalEdgeStyle;curved=1;rounded=0;orthogonalLoop=1;jettySize=auto;html=1;" edge="1" parent="1" source="e_5nv_i7avDI-sbqsIBW-26" target="e_5nv_i7avDI-sbqsIBW-27">
          <mxGeometry relative="1" as="geometry">
            <Array as="points">
              <mxPoint x="910" y="770" />
              <mxPoint x="910" y="490" />
            </Array>
          </mxGeometry>
        </mxCell>
        <mxCell id="e_5nv_i7avDI-sbqsIBW-32" value="场景联动" style="edgeLabel;html=1;align=center;verticalAlign=middle;resizable=0;points=[];" vertex="1" connectable="0" parent="e_5nv_i7avDI-sbqsIBW-31">
          <mxGeometry x="0.0824" y="-2" relative="1" as="geometry">
            <mxPoint as="offset" />
          </mxGeometry>
        </mxCell>
        <mxCell id="e_5nv_i7avDI-sbqsIBW-26" value="规则引擎" style="ellipse;whiteSpace=wrap;html=1;aspect=fixed;" vertex="1" parent="1">
          <mxGeometry x="760" y="730" width="80" height="80" as="geometry" />
        </mxCell>
        <mxCell id="e_5nv_i7avDI-sbqsIBW-28" value="设备数据" style="edgeStyle=orthogonalEdgeStyle;curved=1;rounded=0;orthogonalLoop=1;jettySize=auto;html=1;" edge="1" parent="1" source="e_5nv_i7avDI-sbqsIBW-27" target="e_5nv_i7avDI-sbqsIBW-26">
          <mxGeometry relative="1" as="geometry">
            <Array as="points">
              <mxPoint x="800" y="613" />
              <mxPoint x="780" y="613" />
            </Array>
          </mxGeometry>
        </mxCell>
        <mxCell id="e_5nv_i7avDI-sbqsIBW-27" value="设备网关" style="ellipse;whiteSpace=wrap;html=1;aspect=fixed;" vertex="1" parent="1">
          <mxGeometry x="780" y="450" width="80" height="80" as="geometry" />
        </mxCell>
      </root>
    </mxGraphModel>
  </diagram>
</mxfile>
